<svg xmlns="http://www.w3.org/2000/svg" viewBox="0 0 400 415">

  <!-- ── NYC SKYLINE SILHOUETTE (navy) ── -->
  <path fill="#1C2E5A" d="
    M 18,212
    L 18,180 L 26,180 L 26,168 L 34,168 L 34,156
    L 44,156 L 44,170 L 54,170
    L 54,143 L 62,143 L 62,127 L 69,127 L 69,111
    L 74,111 L 74,95  L 79,95  L 79,79
    L 82,79  L 82,63  L 86,63  L 86,47
    L 88,36  L 90,22  L 91,14
    L 92,22  L 94,36  L 94,47
    L 97,63  L 97,79  L 100,79 L 100,95
    L 105,95 L 105,111 L 110,111 L 110,127
    L 117,127 L 117,143 L 124,143
    L 124,156 L 137,156 L 137,168 L 148,168 L 148,151
    L 161,151 L 161,164 L 172,164 L 172,153 L 183,153
    L 183,168 L 196,168 L 196,156 L 208,156 L 208,170
    L 221,170 L 221,157 L 235,157 L 235,168 L 247,168
    L 247,154 L 260,154 L 260,167 L 271,167 L 271,157
    L 282,157 L 282,146
    L 287,134 L 292,122 L 296,110 L 300,98  L 304,86
    L 307,74  L 309,60  L 310,46 L 311,34  L 312,22
    L 313,34  L 314,46 L 315,60  L 317,74  L 320,86
    L 324,98  L 328,110 L 332,122 L 337,134 L 342,146
    L 342,159 L 354,159 L 354,147 L 364,147 L 364,161
    L 374,161 L 374,172 L 382,172
    L 382,212 Z
  "/>

  <!-- ── CAR BODY (cream — sits in front of skyline) ── -->
  <path fill="#F0EAE0" d="
    M 40,212
    L 40,202 L 42,190 L 46,179 L 52,171 L 60,164
    L 74,157 L 92,151 L 116,145 L 142,141 L 170,138
    L 200,137
    L 230,138 L 258,141 L 284,145 L 308,151 L 326,157
    L 340,164 L 348,171 L 354,179 L 358,190 L 360,202 L 360,212
    Z
  "/>

  <!-- ── LEFT HEADLIGHT ── -->
  <path fill="#1C2E5A" d="
    M 46,210 L 46,186 L 58,179 L 73,178 L 78,185 L 78,204 Z
  "/>

  <!-- ── RIGHT HEADLIGHT ── -->
  <path fill="#1C2E5A" d="
    M 354,210 L 354,186 L 342,179 L 327,178 L 322,185 L 322,204 Z
  "/>

  <!-- ── GRILLE DIVIDER LINE ── -->
  <line x1="96" y1="208" x2="304" y2="208"
        stroke="#1C2E5A" stroke-width="2.5" stroke-linecap="round"/>

  <!-- ── CENTER BADGE ── -->
  <circle cx="200" cy="200" r="9"   fill="#1C2E5A"/>
  <circle cx="200" cy="200" r="5.5" fill="#F0EAE0"/>

  <!-- ── "EMPIRE" ── -->
  <text x="200" y="265"
        font-family="Georgia, 'Times New Roman', serif"
        font-weight="bold"
        font-size="66"
        fill="#1C2E5A"
        text-anchor="middle"
        letter-spacing="5">EMPIRE</text>

  <!-- ── "AUTO RENTALS" ── -->
  <text x="200" y="300"
        font-family="Georgia, 'Times New Roman', serif"
        font-size="22"
        fill="#1C2E5A"
        text-anchor="middle"
        letter-spacing="9">AUTO RENTALS</text>

  <!-- ── Tagline ── -->
  <text x="200" y="338"
        font-family="Georgia, 'Times New Roman', serif"
        font-style="italic"
        font-size="16.5"
        fill="#1C2E5A"
        text-anchor="middle">Drive the Empire State Your Way.</text>

</svg>
